<?xml version="1.0" standalone="no"?>
<!DOCTYPE svg PUBLIC "-//W3C//DTD SVG 20010904//EN"
 "http://www.w3.org/TR/2001/REC-SVG-20010904/DTD/svg10.dtd">
<svg version="1.0" xmlns="http://www.w3.org/2000/svg"
 width="1280.000000pt" height="497.000000pt" viewBox="0 0 1280.000000 497.000000"
 preserveAspectRatio="xMidYMid meet">
<metadata>
Created by potrace 1.15, written by Peter Selinger 2001-2017
</metadata>
<g transform="translate(0.000000,497.000000) scale(0.100000,-0.100000)"
fill="#000000" stroke="none">
<path d="M6014 4827 c-143 -68 -287 -138 -319 -155 -61 -33 -94 -39 -112 -21
-16 16 -49 -5 -117 -75 -32 -34 -53 -54 -47 -44 7 9 8 19 3 22 -13 8 -72 -13
-72 -25 0 -11 -497 -572 -653 -736 -28 -29 -38 -47 -33 -59 6 -15 10 -14 35
10 16 15 31 23 35 18 3 -5 -10 -23 -28 -41 -30 -29 -46 -35 -142 -51 -245 -42
-424 -61 -576 -63 -180 -2 -194 -8 -238 -92 -20 -39 -25 -67 -28 -147 -4 -85
-7 -98 -22 -98 -16 0 -541 74 -607 85 -32 6 -33 6 -17 30 21 33 0 34 -33 3
l-24 -22 -217 28 c-863 109 -1253 146 -1418 132 -86 -7 -191 -44 -335 -120
-58 -30 -187 -84 -287 -121 -321 -115 -483 -191 -560 -260 -80 -72 -79 -135 4
-235 53 -63 225 -191 321 -238 79 -40 93 -50 89 -67 -3 -11 -8 -38 -12 -61
l-6 -41 56 -22 c51 -21 55 -25 50 -50 -5 -26 -2 -28 188 -105 106 -43 198 -80
204 -83 9 -3 64 66 64 82 0 3 -8 5 -19 5 -26 0 -48 27 -33 42 8 8 7 15 -6 25
-15 12 -13 13 13 7 17 -4 55 -15 85 -24 198 -65 571 -152 829 -195 85 -13 155
-26 156 -27 1 -2 7 -18 14 -35 17 -42 31 -42 31 -2 0 31 1 31 38 25 20 -3 201
-29 401 -56 316 -44 385 -56 520 -96 260 -76 501 -130 934 -209 226 -42 454
-88 505 -102 l93 -26 -6 -72 c-7 -69 -6 -73 20 -99 14 -15 43 -30 63 -34 37
-8 37 -8 14 -21 -13 -7 -35 -38 -49 -68 -41 -89 -31 -255 19 -325 24 -34 123
-67 291 -98 104 -19 154 -21 410 -21 l292 1 22 25 c47 53 64 181 38 271 -6 19
0 22 62 32 168 28 173 28 254 -16 90 -49 292 -116 322 -108 15 4 55 -11 122
-44 96 -49 171 -70 241 -70 43 0 44 19 4 70 -37 47 -37 51 -2 40 15 -5 117
-30 227 -55 110 -25 209 -49 220 -52 28 -8 -165 -52 -235 -53 -84 -1 -136 -29
-163 -87 -18 -40 -21 -67 -22 -158 0 -99 3 -115 26 -160 22 -44 31 -52 76 -66
28 -9 106 -27 174 -40 114 -22 147 -23 409 -21 157 1 301 4 320 7 41 6 65 34
81 90 15 54 15 165 1 192 -14 25 -14 24 125 56 58 13 65 13 94 -5 39 -24 214
-88 240 -88 29 0 23 27 -17 76 -21 26 -31 44 -23 44 8 -1 290 -56 627 -123
443 -89 612 -119 612 -110 0 7 -9 13 -21 13 -11 0 -17 5 -14 10 3 6 14 10 23
10 10 0 23 9 30 20 7 11 22 20 35 20 12 0 117 -18 232 -41 179 -35 235 -42
382 -46 l172 -5 38 29 c21 16 63 46 93 67 30 21 73 51 95 67 22 17 55 39 73
51 18 11 31 22 30 24 -2 1 -41 8 -88 14 l-85 11 -252 -85 -251 -84 -59 14
c-32 7 -166 34 -298 59 -960 183 -1320 264 -2060 461 -397 106 -969 273 -1065
311 -19 8 100 32 157 33 37 0 43 -3 49 -25 3 -13 12 -29 20 -36 11 -9 14 -6
14 20 0 17 4 31 9 31 6 0 71 -9 146 -20 457 -67 723 -85 1165 -77 173 3 434
14 580 26 146 11 294 22 330 24 36 3 207 19 380 36 258 25 1131 102 1590 139
69 6 109 5 118 -1 7 -6 23 -12 35 -13 49 -5 642 -149 932 -226 l310 -82 170
-3 c154 -2 167 -1 140 12 -247 119 -764 345 -793 346 l-27 1 25 7 c29 8 28 9
-72 51 -77 32 -99 56 -55 62 12 2 22 10 22 20 0 9 8 25 18 35 28 31 24 146 -8
209 -33 67 -83 98 -192 118 -48 9 -88 18 -91 20 -2 2 69 106 157 230 89 125
161 231 161 236 0 6 4 10 9 10 5 0 60 73 122 163 63 89 165 233 229 319 63 87
174 241 245 344 72 103 137 195 146 203 26 26 121 172 115 178 -7 7 -630 83
-684 83 -53 0 -49 3 -481 -249 -196 -114 -522 -304 -726 -421 -203 -117 -543
-313 -755 -435 -212 -122 -425 -243 -475 -268 -109 -54 -215 -87 -281 -87 -99
1 -407 38 -415 51 -6 10 -11 10 -22 1 -16 -14 -26 -13 -842 92 -718 93 -1027
134 -1135 152 -52 9 -131 20 -175 24 -44 4 -150 17 -235 29 -85 11 -222 30
-305 40 -82 11 -242 32 -355 47 -113 14 -206 27 -208 29 -1 1 49 119 111 261
l114 259 -21 21 c-27 27 -128 84 -149 84 -9 0 -20 6 -24 14 -4 8 -17 16 -28
19 -11 2 -2 5 21 6 l40 1 153 378 c84 207 159 382 167 388 8 6 11 13 8 16 -3
3 21 70 52 149 l58 143 132 141 c72 77 144 154 158 172 l27 31 -53 6 c-29 3
-80 8 -113 11 l-60 5 -261 -123z m-604 -321 c0 -3 -4 -8 -10 -11 -5 -3 -10 -1
-10 4 0 6 5 11 10 11 6 0 10 -2 10 -4z m-40 -51 c-7 -8 -17 -15 -23 -15 -5 0
-2 9 8 20 21 23 35 19 15 -5z m-30 -29 c0 -3 -4 -8 -10 -11 -5 -3 -10 -1 -10
4 0 6 5 11 10 11 6 0 10 -2 10 -4z m-30 -36 c0 -5 -5 -10 -11 -10 -5 0 -7 5
-4 10 3 6 8 10 11 10 2 0 4 -4 4 -10z m-20 -24 c0 -3 -4 -8 -10 -11 -5 -3 -10
-1 -10 4 0 6 5 11 10 11 6 0 10 -2 10 -4z m-40 -51 c-7 -8 -17 -15 -23 -15 -5
0 -2 9 8 20 21 23 35 19 15 -5z m-80 -85 c0 -5 -5 -10 -11 -10 -5 0 -7 5 -4
10 3 6 8 10 11 10 2 0 4 -4 4 -10z m-40 -45 c-7 -9 -15 -13 -18 -10 -3 2 1 11
8 20 7 9 15 13 18 10 3 -2 -1 -11 -8 -20z m-110 -130 c-7 -8 -17 -15 -23 -15
-5 0 -2 9 8 20 21 23 35 19 15 -5z m-110 -120 c-7 -8 -17 -15 -22 -15 -6 0 -5
7 2 15 7 8 17 15 22 15 6 0 5 -7 -2 -15z m-115 -124 c-3 -6 -11 -11 -17 -11
-6 0 -6 6 2 15 14 17 26 13 15 -4z m842 -307 c-3 -3 -12 -4 -19 -1 -8 3 -5 6
6 6 11 1 17 -2 13 -5z m-390 -2120 c-3 -3 -12 -4 -19 -1 -8 3 -5 6 6 6 11 1
17 -2 13 -5z m1656 -354 c31 -6 57 -15 57 -19 0 -5 -29 -1 -65 7 -36 9 -65 20
-65 25 0 4 3 6 8 4 4 -3 33 -10 65 -17z m142 -36 c36 -9 65 -20 65 -24 0 -9
-121 19 -134 31 -14 12 -4 11 69 -7z m112 -30 c-3 -3 -12 -4 -19 -1 -8 3 -5 6
6 6 11 1 17 -2 13 -5z m82 -20 c10 -9 -35 -3 -49 6 -11 8 -7 9 15 4 17 -4 32
-8 34 -10z m1334 -281 c-7 -2 -19 -2 -25 0 -7 3 -2 5 12 5 14 0 19 -2 13 -5z
m50 -10 c-7 -2 -19 -2 -25 0 -7 3 -2 5 12 5 14 0 19 -2 13 -5z m292 -53 c14
-7 8 -8 -20 -3 -22 3 -42 7 -44 9 -9 8 45 2 64 -6z m260 -50 c27 -7 27 -8 5
-8 -14 0 -36 4 -50 8 -20 6 -21 8 -5 8 11 0 34 -4 50 -8z"/>
</g>
</svg>
